# xmcd
#
# Track frame offsets: 
#        150
#        9275
#        18955
#        30000
#        38812
#        46720
#        61975
#        72625
#        81180
#        90827
#        99547
#        108587
#        117870
#        130430
#        138347
#        147230
#        157352
#        167105
#        175360
#        185790
#        194172
#        200127
#        210787
#        222460
#
# Disc length: 3068 seconds
#
# Revision: 2
# Processed by: cddbd v1.5.2PL0 Copyright (c) Steve Scherf et al.
# Submitted via: ExactAudioCopy v1.1
#
DISCID=5b0bfa18
DTITLE=Don Rich and The Buckaroos - Don Rich_Country Pickin' - The Don R
DTITLE=ich Anthology
DYEAR=2000
DGENRE=Country
TTITLE0=Buckaroo
TTITLE1=Orange Blossom Special
TTITLE2=I'm Layin' It On The Line
TTITLE3=The Happy-Go-Lucky-Guitar
TTITLE4=Cajun Fiddle
TTITLE5=Out Of My Mind
TTITLE6=Round Hole Guitar
TTITLE7=Tumwater Breakdown
TTITLE8=Chicken Pickin'
TTITLE9=Love's Gonna Come A Knockin'
TTITLE10=Buckersfield Breakdown
TTITLE11=I'll Be Swingin' Too
TTITLE12=Sad Is The Lonely
TTITLE13=Pretty Girl
TTITLE14=Chaparral
TTITLE15=I'm Coming Back Home To Stay
TTITLE16=Spanish Moonlight
TTITLE17=Saturday Night
TTITLE18=I'm Goin' Back Home Where I Belong
TTITLE19=Aw Heck
TTITLE20=Georgia Peach
TTITLE21=Tim-Buck-Too
TTITLE22=Pickin-Nickin'
TTITLE23=Country Pickin'
EXTD=YEAR: 2000
EXTT0=
EXTT1=
EXTT2=
EXTT3=
EXTT4=
EXTT5=
EXTT6=
EXTT7=
EXTT8=
EXTT9=
EXTT10=
EXTT11=
EXTT12=
EXTT13=
EXTT14=
EXTT15=
EXTT16=
EXTT17=
EXTT18=
EXTT19=
EXTT20=
EXTT21=
EXTT22=
EXTT23=
PLAYORDER=
